<svg width="77" height="22" viewBox="0 0 77 22" fill="none" xmlns="http://www.w3.org/2000/svg">
<path d="M2.09998 21.27C1.51998 21.27 1.01998 21.06 0.599981 20.64C0.199981 20.22 -1.94088e-05 19.72 -1.94088e-05 19.14V2.97002C-1.94088e-05 1.97002 0.329981 1.23002 0.989981 0.750019C1.64998 0.250018 2.65998 1.80006e-05 4.01998 1.80006e-05V17.79H12.12C13.06 17.79 13.77 18.09 14.25 18.69C14.73 19.27 14.97 20.13 14.97 21.27H2.09998ZM24.7952 21.54C23.1552 21.54 21.6552 21.22 20.2952 20.58C18.9352 19.92 17.8552 19.03 17.0552 17.91C16.2752 16.79 15.8852 15.57 15.8852 14.25V7.26002C15.8852 5.94002 16.2752 4.73002 17.0552 3.63002C17.8552 2.51002 18.9352 1.63002 20.2952 0.990018C21.6552 0.330018 23.1552 1.80006e-05 24.7952 1.80006e-05C26.4352 1.80006e-05 27.9352 0.330018 29.2952 0.990018C30.6752 1.63002 31.7552 2.51002 32.5352 3.63002C33.3352 4.73002 33.7352 5.94002 33.7352 7.26002V14.25C33.7352 15.57 33.3352 16.79 32.5352 17.91C31.7552 19.03 30.6752 19.92 29.2952 20.58C27.9352 21.22 26.4352 21.54 24.7952 21.54ZM24.7952 18.03C26.2952 18.03 27.4952 17.68 28.3952 16.98C29.2952 16.26 29.7452 15.33 29.7452 14.19V7.35002C29.7452 6.19002 29.2952 5.26002 28.3952 4.56002C27.4952 3.84002 26.2952 3.48002 24.7952 3.48002C23.3152 3.48002 22.1252 3.84002 21.2252 4.56002C20.3252 5.26002 19.8752 6.19002 19.8752 7.35002V14.19C19.8752 15.33 20.3252 16.26 21.2252 16.98C22.1252 17.68 23.3152 18.03 24.7952 18.03ZM46.1822 21.54C44.4022 21.54 42.8122 21.2 41.4122 20.52C40.0322 19.84 38.9522 18.89 38.1722 17.67C37.3922 16.45 37.0022 15.06 37.0022 13.5V7.98002C37.0022 6.42002 37.3822 5.04002 38.1422 3.84002C38.9222 2.62002 39.9922 1.68002 41.3522 1.02002C42.7122 0.340018 44.2722 1.80006e-05 46.0322 1.80006e-05C47.7922 1.80006e-05 49.3522 0.270018 50.7122 0.810018C52.0922 1.33002 53.1622 2.06002 53.9222 3.00002C54.6822 3.94002 55.0622 5.02002 55.0622 6.24002C55.0622 6.98002 54.8122 7.56002 54.3122 7.98002C53.8322 8.40002 53.1822 8.61002 52.3622 8.61002C51.9622 8.61002 51.5222 8.55002 51.0422 8.43002C51.0822 7.95002 51.1022 7.48002 51.1022 7.02002C51.1022 5.96002 50.6322 5.10002 49.6922 4.44002C48.7522 3.78002 47.5322 3.45002 46.0322 3.45002C44.5522 3.45002 43.3422 3.87002 42.4022 4.71002C41.4822 5.55002 41.0222 6.64002 41.0222 7.98002V13.5C41.0222 14.84 41.5022 15.94 42.4622 16.8C43.4222 17.66 44.6622 18.09 46.1822 18.09C47.6622 18.09 48.8622 17.75 49.7822 17.07C50.7222 16.37 51.1922 15.47 51.1922 14.37V13.44H48.6122C47.8522 13.44 47.2322 13.15 46.7522 12.57C46.2722 11.97 46.0322 11.2 46.0322 10.26H53.3222C53.8822 10.26 54.3322 10.43 54.6722 10.77C55.0122 11.11 55.1822 11.56 55.1822 12.12V14.46C55.1822 15.84 54.8022 17.07 54.0422 18.15C53.2822 19.21 52.2122 20.04 50.8322 20.64C49.4722 21.24 47.9222 21.54 46.1822 21.54ZM67.3179 21.54C65.6779 21.54 64.1779 21.22 62.8179 20.58C61.4579 19.92 60.3779 19.03 59.5779 17.91C58.7979 16.79 58.4079 15.57 58.4079 14.25V7.26002C58.4079 5.94002 58.7979 4.73002 59.5779 3.63002C60.3779 2.51002 61.4579 1.63002 62.8179 0.990018C64.1779 0.330018 65.6779 1.80006e-05 67.3179 1.80006e-05C68.9579 1.80006e-05 70.4579 0.330018 71.8179 0.990018C73.1979 1.63002 74.2779 2.51002 75.0579 3.63002C75.8579 4.73002 76.2579 5.94002 76.2579 7.26002V14.25C76.2579 15.57 75.8579 16.79 75.0579 17.91C74.2779 19.03 73.1979 19.92 71.8179 20.58C70.4579 21.22 68.9579 21.54 67.3179 21.54ZM67.3179 18.03C68.8179 18.03 70.0179 17.68 70.9179 16.98C71.8179 16.26 72.2679 15.33 72.2679 14.19V7.35002C72.2679 6.19002 71.8179 5.26002 70.9179 4.56002C70.0179 3.84002 68.8179 3.48002 67.3179 3.48002C65.8379 3.48002 64.6479 3.84002 63.7479 4.56002C62.8479 5.26002 62.3979 6.19002 62.3979 7.35002V14.19C62.3979 15.33 62.8479 16.26 63.7479 16.98C64.6479 17.68 65.8379 18.03 67.3179 18.03Z" fill="url(#paint0_linear_587_644)"/>
<defs>
<linearGradient id="paint0_linear_587_644" x1="-1.77002" y1="9.14099" x2="78.23" y2="9.14099" gradientUnits="userSpaceOnUse">
<stop stop-color="#FA6E00"/>
<stop offset="1" stop-color="#E60026"/>
</linearGradient>
</defs>
</svg>
