<svg width="70" height="70" viewBox="0 0 70 70" fill="none" xmlns="http://www.w3.org/2000/svg">
<path fill-rule="evenodd" clip-rule="evenodd" d="M27.9766 40.708C37.4821 40.708 50.12 41.7784 50.12 51.0388C50.12 60.7936 35.394 61.3789 29.0774 61.4141L26.784 61.4141C20.049 61.3791 5.83331 60.7971 5.83331 51.0971C5.83331 41.3313 20.5592 40.7454 26.8759 40.7102L27.6348 40.708C27.7531 40.708 27.8671 40.708 27.9766 40.708ZM27.9766 45.083C19.8712 45.083 10.2083 46.1242 10.2083 51.0971C10.2083 55.0405 16.1875 57.0413 27.9766 57.0413C39.7658 57.0413 45.745 55.02 45.745 51.0388C45.745 47.0867 39.7658 45.083 27.9766 45.083ZM54.5612 39.3456C62.4537 40.5268 64.1074 44.1814 64.1074 47.0368C64.1074 49.1631 63.1887 52.0418 58.8049 53.7014C58.5512 53.7977 58.2887 53.8443 58.0291 53.8443C57.1454 53.8443 56.3141 53.3048 55.9845 52.4327C55.5558 51.3039 56.1245 50.0381 57.2533 49.6123C59.7324 48.6731 59.7324 47.5268 59.7324 47.0368C59.7324 45.3831 57.7754 44.2514 53.9166 43.6768C52.7208 43.496 51.8954 42.3818 52.0733 41.1889C52.2541 39.9931 53.3887 39.191 54.5612 39.3456ZM27.9766 5.83337C36.2337 5.83337 42.9539 12.5534 42.9539 20.8105C42.9712 24.7888 41.4283 28.5455 38.6166 31.3746C35.8108 34.2067 32.0629 35.773 28.0758 35.7875H27.9766C19.7166 35.7875 12.9966 29.0675 12.9966 20.8105C12.9966 12.5534 19.7166 5.83337 27.9766 5.83337ZM48.6488 9.11112C54.3801 10.0503 58.5392 14.9532 58.5392 20.7661C58.5276 26.614 54.1613 31.6365 48.3805 32.4474C48.2784 32.462 48.1763 32.4678 48.0742 32.4678C47.0009 32.4678 46.0646 31.6774 45.9101 30.5836C45.7438 29.3878 46.5751 28.2795 47.7709 28.1132C51.4109 27.6028 54.1584 24.444 54.1642 20.7632C54.1642 17.1057 51.5451 14.0199 47.943 13.4307C46.7501 13.2324 45.9421 12.1095 46.1376 10.9165C46.333 9.72362 47.4617 8.92154 48.6488 9.11112ZM27.9766 10.2084C22.1287 10.2084 17.3716 14.9655 17.3716 20.8105C17.3716 26.6555 22.1287 31.4125 27.9766 31.4125H28.0671C30.8787 31.4009 33.5271 30.2955 35.5133 28.2917C37.5025 26.2938 38.5904 23.6367 38.5788 20.8192C38.5788 14.9655 33.8216 10.2084 27.9766 10.2084Z" fill="#FD6F00"/>
</svg>
